<svg xmlns="http://www.w3.org/2000/svg" xmlns:xlink="http://www.w3.org/1999/xlink" width="450" zoomAndPan="magnify" viewBox="0 0 337.5 60" height="80" preserveAspectRatio="xMidYMid meet" version="1.0"><defs><g/><clipPath id="89239ea8ce"><path d="M 2 0.0429688 L 48 0.0429688 L 48 58 L 2 58 Z M 2 0.0429688 " clip-rule="nonzero"/></clipPath><clipPath id="7c4aaaa6f9"><path d="M 126 0.0429688 L 182 0.0429688 L 182 58 L 126 58 Z M 126 0.0429688 " clip-rule="nonzero"/></clipPath><clipPath id="72af30e549"><path d="M 248 0.0429688 L 289 0.0429688 L 289 58 L 248 58 Z M 248 0.0429688 " clip-rule="nonzero"/></clipPath></defs><g clip-path="url(#89239ea8ce)"><g fill="#ffffff" fill-opacity="1"><g transform="translate(2.583643, 58.712747)"><g><path d="M 44.945312 -57 C 45.042969 -57.4375 44.945312 -57.730469 44.703125 -57.878906 C 44.410156 -58.023438 44.066406 -58.023438 43.726562 -57.878906 C 43.382812 -57.730469 43.140625 -57.4375 42.992188 -57 C 42.847656 -56.511719 42.601562 -55.535156 42.261719 -54.023438 C 41.578125 -50.898438 40.554688 -46.605469 39.1875 -41.089844 C 37.773438 -35.574219 36.160156 -29.964844 34.308594 -24.15625 C 32.453125 -18.347656 30.453125 -13.46875 28.355469 -9.46875 C 26.253906 -5.417969 24.109375 -3.367188 21.910156 -3.222656 C 19.617188 -3.367188 17.957031 -5.222656 16.984375 -8.6875 C 15.957031 -12.152344 15.421875 -16.496094 15.273438 -21.765625 C 15.128906 -27.035156 15.273438 -32.453125 15.617188 -38.015625 C 15.957031 -43.578125 16.300781 -48.507812 16.691406 -52.804688 C 16.835938 -54.414062 16.933594 -55.878906 17.03125 -57.195312 C 17.03125 -57.535156 16.886719 -57.78125 16.640625 -57.925781 C 16.398438 -58.023438 16.105469 -58.023438 15.8125 -57.878906 C 15.46875 -57.730469 15.226562 -57.488281 15.078125 -57.144531 C 14.054688 -54.460938 12.589844 -50.460938 10.785156 -45.140625 C 8.980469 -39.773438 7.171875 -34.0625 5.367188 -27.964844 C 3.5625 -21.863281 2.246094 -16.398438 1.367188 -11.566406 C 0.4375 -6.734375 0.390625 -3.515625 1.21875 -1.953125 C 1.464844 -1.5625 1.757812 -1.316406 2.050781 -1.21875 C 2.34375 -1.074219 2.636719 -1.023438 2.878906 -1.023438 C 3.320312 -1.023438 3.660156 -1.171875 3.902344 -1.511719 C 4.148438 -1.855469 4.195312 -2.148438 4.148438 -2.488281 C 4.097656 -2.832031 3.855469 -2.976562 3.417969 -2.976562 C 3.367188 -2.976562 3.367188 -2.976562 3.320312 -2.976562 C 3.269531 -2.976562 3.269531 -3.027344 3.222656 -3.074219 C 3.171875 -3.125 3.125 -3.171875 3.074219 -3.222656 C 2.34375 -4.734375 2.539062 -8.199219 3.660156 -13.617188 C 4.78125 -19.03125 6.394531 -25.082031 8.441406 -31.820312 C 10.492188 -38.503906 12.492188 -44.652344 14.492188 -50.167969 C 13.957031 -44.359375 13.566406 -38.601562 13.226562 -32.792969 C 12.882812 -26.988281 12.882812 -21.714844 13.128906 -16.933594 C 13.371094 -12.101562 14.152344 -8.296875 15.421875 -5.417969 C 16.691406 -2.539062 18.691406 -1.171875 21.375 -1.21875 C 23.960938 -1.464844 26.402344 -3.320312 28.644531 -6.785156 C 30.890625 -10.25 32.941406 -14.542969 34.796875 -19.714844 C 36.601562 -24.839844 38.261719 -30.160156 39.675781 -35.574219 C 41.089844 -40.992188 42.3125 -45.875 43.285156 -50.117188 C 43.921875 -53 44.507812 -55.292969 44.945312 -57 Z M 44.945312 -57 "/></g></g></g></g><g fill="#ffffff" fill-opacity="1"><g transform="translate(43.178539, 58.712747)"><g><path d="M 16.789062 -24.109375 C 13.371094 -21.035156 10.640625 -19.570312 8.589844 -19.765625 C 7.417969 -19.910156 6.832031 -20.496094 6.832031 -21.472656 C 6.785156 -22.398438 6.980469 -23.523438 7.367188 -24.742188 L 7.464844 -25.035156 C 7.515625 -25.472656 7.464844 -25.765625 7.222656 -25.914062 C 6.980469 -26.058594 6.6875 -26.058594 6.34375 -25.960938 C 6.003906 -25.863281 5.757812 -25.621094 5.5625 -25.230469 C 4.734375 -23.71875 4 -22.546875 3.417969 -21.765625 C 2.832031 -20.9375 2.390625 -20.398438 2.050781 -20.15625 C 1.707031 -19.863281 1.464844 -19.714844 1.367188 -19.714844 C 1.316406 -19.714844 1.21875 -19.714844 1.171875 -19.765625 C 1.074219 -19.765625 0.976562 -19.8125 0.925781 -19.910156 C 0.878906 -20.007812 0.828125 -20.15625 0.828125 -20.398438 C 0.828125 -20.886719 0.976562 -21.421875 1.269531 -22.058594 C 1.511719 -22.644531 1.804688 -23.132812 2.148438 -23.523438 C 2.488281 -23.914062 2.734375 -24.011719 2.976562 -23.816406 C 3.222656 -23.570312 3.5625 -23.523438 3.902344 -23.667969 C 4.246094 -23.816406 4.539062 -24.058594 4.734375 -24.402344 C 4.878906 -24.742188 4.878906 -25.035156 4.636719 -25.328125 C 3.902344 -26.058594 3.074219 -26.15625 2.148438 -25.667969 C 1.21875 -25.179688 0.4375 -24.402344 -0.195312 -23.277344 C -0.878906 -22.15625 -1.21875 -20.984375 -1.21875 -19.8125 C -1.121094 -18.445312 -0.4375 -17.761719 0.828125 -17.761719 C 2.050781 -17.761719 3.367188 -18.738281 4.78125 -20.644531 C 4.929688 -19.617188 5.320312 -18.886719 5.953125 -18.445312 C 6.589844 -18.007812 7.417969 -17.761719 8.492188 -17.761719 C 11.078125 -17.761719 14.25 -19.472656 17.957031 -22.839844 C 18.300781 -23.179688 18.445312 -23.523438 18.398438 -23.863281 C 18.300781 -24.15625 18.105469 -24.351562 17.8125 -24.449219 C 17.472656 -24.546875 17.128906 -24.449219 16.789062 -24.109375 Z M 16.789062 -24.109375 "/></g></g></g><g fill="#ffffff" fill-opacity="1"><g transform="translate(59.765014, 58.712747)"><g><path d="M 34.648438 -42.066406 L 6.980469 -42.066406 C 7.808594 -45.238281 8.734375 -48.65625 9.710938 -52.363281 C 9.808594 -52.804688 9.710938 -53.097656 9.46875 -53.242188 C 9.175781 -53.386719 8.832031 -53.386719 8.492188 -53.242188 C 8.148438 -53.097656 7.90625 -52.804688 7.757812 -52.363281 C 6.734375 -48.65625 5.808594 -45.238281 4.976562 -42.066406 L -8.050781 -42.066406 C -8.492188 -42.066406 -8.785156 -41.921875 -8.980469 -41.578125 C -9.222656 -41.238281 -9.320312 -40.945312 -9.273438 -40.601562 C -9.222656 -40.261719 -9.027344 -40.113281 -8.6875 -40.113281 L 4.441406 -40.113281 C 3.515625 -36.550781 2.636719 -33.332031 1.855469 -30.453125 C -1.316406 -19.03125 -3.171875 -11.859375 -3.707031 -8.980469 C -3.953125 -7.660156 -4 -6.589844 -3.855469 -5.757812 C -3.707031 -4.878906 -3.074219 -4.441406 -1.953125 -4.441406 C -1.511719 -4.441406 -1.171875 -4.585938 -0.925781 -4.929688 C -0.683594 -5.269531 -0.632812 -5.613281 -0.683594 -5.953125 C -0.730469 -6.296875 -0.976562 -6.441406 -1.414062 -6.441406 C -1.5625 -6.441406 -1.707031 -6.492188 -1.804688 -6.636719 C -1.902344 -6.785156 -1.953125 -7.027344 -1.953125 -7.417969 C -1.953125 -7.808594 -1.855469 -8.394531 -1.707031 -9.175781 C -1.023438 -12.347656 0.828125 -19.472656 3.804688 -30.453125 L 6.441406 -40.113281 L 34.160156 -40.113281 C 34.601562 -40.113281 34.941406 -40.261719 35.1875 -40.601562 C 35.429688 -40.945312 35.480469 -41.238281 35.429688 -41.578125 C 35.382812 -41.921875 35.089844 -42.066406 34.648438 -42.066406 Z M 34.648438 -42.066406 "/></g></g></g><g fill="#ffffff" fill-opacity="1"><g transform="translate(66.396779, 58.712747)"><g><path d="M 22.449219 -24.304688 L 22.300781 -24.207031 C 20.742188 -23.035156 19.179688 -22.007812 17.667969 -21.082031 C 16.105469 -20.15625 14.589844 -19.714844 13.175781 -19.714844 C 12.542969 -19.714844 12.101562 -19.910156 11.957031 -20.253906 C 11.761719 -20.59375 11.664062 -21.277344 11.664062 -22.203125 C 11.710938 -22.742188 11.664062 -23.277344 11.613281 -23.863281 C 11.515625 -24.402344 11.273438 -24.886719 10.929688 -25.277344 C 10.589844 -25.667969 9.957031 -25.863281 9.125 -25.863281 C 7.90625 -25.863281 6.589844 -25.375 5.171875 -24.449219 C 3.757812 -23.472656 2.34375 -22.300781 0.925781 -20.9375 C 1.367188 -22.742188 2 -25.277344 2.832031 -28.449219 C 3.660156 -31.625 4.539062 -34.84375 5.417969 -38.066406 C 6.148438 -40.75 6.832031 -43.433594 7.5625 -46.019531 C 7.660156 -46.457031 7.5625 -46.75 7.320312 -46.898438 C 7.027344 -47.042969 6.6875 -47.042969 6.34375 -46.898438 C 6.003906 -46.75 5.757812 -46.457031 5.613281 -46.019531 C 4.878906 -43.433594 4.148438 -40.75 3.417969 -38.066406 C 1.5625 -31.183594 0.292969 -26.304688 -0.4375 -23.472656 C -1.171875 -20.644531 -1.464844 -18.984375 -1.414062 -18.445312 C -1.367188 -18.007812 -1.121094 -17.8125 -0.683594 -17.761719 C -0.242188 -17.714844 0.144531 -17.859375 0.535156 -18.203125 C 0.878906 -18.542969 1.269531 -18.835938 1.660156 -19.179688 C 2.976562 -20.398438 4.246094 -21.519531 5.464844 -22.496094 C 6.6875 -23.425781 7.710938 -23.914062 8.589844 -23.914062 C 9.027344 -23.914062 9.320312 -23.765625 9.46875 -23.472656 C 9.613281 -23.132812 9.664062 -22.546875 9.613281 -21.667969 C 9.613281 -21.132812 9.664062 -20.546875 9.761719 -19.960938 C 9.859375 -19.324219 10.101562 -18.835938 10.542969 -18.398438 C 10.980469 -17.957031 11.664062 -17.761719 12.6875 -17.761719 C 14.445312 -17.761719 16.25 -18.300781 18.054688 -19.324219 C 19.863281 -20.351562 21.617188 -21.519531 23.375 -22.839844 C 23.765625 -23.132812 23.960938 -23.472656 23.960938 -23.816406 C 23.914062 -24.15625 23.765625 -24.402344 23.523438 -24.546875 C 23.230469 -24.695312 22.886719 -24.597656 22.449219 -24.304688 Z M 22.449219 -24.304688 "/></g></g></g><g fill="#ffffff" fill-opacity="1"><g transform="translate(88.399788, 58.712747)"><g><path d="M 16.789062 -24.109375 C 13.371094 -21.035156 10.640625 -19.570312 8.589844 -19.765625 C 7.417969 -19.910156 6.832031 -20.496094 6.832031 -21.472656 C 6.785156 -22.398438 6.980469 -23.523438 7.367188 -24.742188 L 7.464844 -25.035156 C 7.515625 -25.472656 7.464844 -25.765625 7.222656 -25.914062 C 6.980469 -26.058594 6.6875 -26.058594 6.34375 -25.960938 C 6.003906 -25.863281 5.757812 -25.621094 5.5625 -25.230469 C 4.734375 -23.71875 4 -22.546875 3.417969 -21.765625 C 2.832031 -20.9375 2.390625 -20.398438 2.050781 -20.15625 C 1.707031 -19.863281 1.464844 -19.714844 1.367188 -19.714844 C 1.316406 -19.714844 1.21875 -19.714844 1.171875 -19.765625 C 1.074219 -19.765625 0.976562 -19.8125 0.925781 -19.910156 C 0.878906 -20.007812 0.828125 -20.15625 0.828125 -20.398438 C 0.828125 -20.886719 0.976562 -21.421875 1.269531 -22.058594 C 1.511719 -22.644531 1.804688 -23.132812 2.148438 -23.523438 C 2.488281 -23.914062 2.734375 -24.011719 2.976562 -23.816406 C 3.222656 -23.570312 3.5625 -23.523438 3.902344 -23.667969 C 4.246094 -23.816406 4.539062 -24.058594 4.734375 -24.402344 C 4.878906 -24.742188 4.878906 -25.035156 4.636719 -25.328125 C 3.902344 -26.058594 3.074219 -26.15625 2.148438 -25.667969 C 1.21875 -25.179688 0.4375 -24.402344 -0.195312 -23.277344 C -0.878906 -22.15625 -1.21875 -20.984375 -1.21875 -19.8125 C -1.121094 -18.445312 -0.4375 -17.761719 0.828125 -17.761719 C 2.050781 -17.761719 3.367188 -18.738281 4.78125 -20.644531 C 4.929688 -19.617188 5.320312 -18.886719 5.953125 -18.445312 C 6.589844 -18.007812 7.417969 -17.761719 8.492188 -17.761719 C 11.078125 -17.761719 14.25 -19.472656 17.957031 -22.839844 C 18.300781 -23.179688 18.445312 -23.523438 18.398438 -23.863281 C 18.300781 -24.15625 18.105469 -24.351562 17.8125 -24.449219 C 17.472656 -24.546875 17.128906 -24.449219 16.789062 -24.109375 Z M 16.789062 -24.109375 "/></g></g></g><g fill="#ffffff" fill-opacity="1"><g transform="translate(104.986258, 58.712747)"><g><path d="M 21.570312 -24.304688 C 21.230469 -24.058594 20.886719 -23.765625 20.546875 -23.523438 C 19.421875 -22.644531 18.25 -21.8125 16.984375 -20.984375 C 15.664062 -20.15625 14.542969 -19.714844 13.519531 -19.714844 C 12.882812 -19.714844 12.492188 -19.910156 12.296875 -20.253906 C 12.054688 -20.59375 11.957031 -21.277344 11.957031 -22.203125 C 12.003906 -22.742188 11.957031 -23.277344 11.90625 -23.863281 C 11.808594 -24.402344 11.566406 -24.886719 11.222656 -25.277344 C 10.882812 -25.667969 10.25 -25.863281 9.417969 -25.863281 C 8.199219 -25.863281 6.832031 -25.375 5.417969 -24.402344 C 4 -23.375 2.539062 -22.203125 1.074219 -20.789062 C 1.316406 -21.714844 1.5625 -22.644531 1.804688 -23.523438 C 1.953125 -24.058594 2.097656 -24.5 2.195312 -24.886719 C 2.292969 -25.328125 2.195312 -25.621094 1.953125 -25.765625 C 1.660156 -25.914062 1.316406 -25.914062 0.976562 -25.765625 C 0.632812 -25.621094 0.390625 -25.328125 0.242188 -24.886719 C 0.0976562 -24.449219 -0.046875 -23.960938 -0.195312 -23.425781 C -0.4375 -22.546875 -0.632812 -21.667969 -0.878906 -20.789062 C -1.121094 -19.910156 -1.21875 -19.226562 -1.269531 -18.691406 C -1.316406 -18.054688 -1.121094 -17.714844 -0.683594 -17.570312 C -0.292969 -17.421875 0.242188 -17.617188 0.878906 -18.203125 C 2.34375 -19.617188 3.804688 -20.9375 5.269531 -22.15625 C 6.6875 -23.328125 7.90625 -23.914062 8.882812 -23.914062 C 9.320312 -23.914062 9.613281 -23.765625 9.761719 -23.472656 C 9.90625 -23.132812 9.957031 -22.546875 9.957031 -21.667969 C 9.90625 -21.132812 9.957031 -20.546875 10.054688 -19.960938 C 10.152344 -19.324219 10.394531 -18.835938 10.832031 -18.398438 C 11.273438 -17.957031 11.957031 -17.761719 12.980469 -17.761719 C 14.347656 -17.761719 15.761719 -18.25 17.277344 -19.179688 C 18.789062 -20.105469 20.203125 -21.082031 21.519531 -22.105469 C 21.863281 -22.351562 22.15625 -22.59375 22.496094 -22.839844 C 22.886719 -23.179688 23.082031 -23.472656 23.082031 -23.816406 C 23.035156 -24.15625 22.886719 -24.351562 22.59375 -24.5 C 22.300781 -24.644531 21.960938 -24.546875 21.570312 -24.304688 Z M 21.570312 -24.304688 "/></g></g></g><g clip-path="url(#7c4aaaa6f9)"><g fill="#ffffff" fill-opacity="1"><g transform="translate(126.2085, 58.712747)"><g><path d="M 33.867188 -1.074219 C 32.257812 -1.074219 30.988281 -1.660156 30.160156 -2.78125 C 29.328125 -3.902344 28.792969 -5.367188 28.546875 -7.222656 C 28.304688 -9.027344 28.257812 -11.078125 28.402344 -13.324219 C 28.546875 -15.519531 28.792969 -17.761719 29.132812 -20.007812 C 29.476562 -22.203125 29.867188 -24.304688 30.207031 -26.207031 C 30.355469 -27.035156 30.5 -27.816406 30.648438 -28.597656 C 30.257812 -27.671875 29.867188 -26.792969 29.523438 -25.863281 L 29.523438 -25.765625 C 28.546875 -23.277344 27.476562 -20.59375 26.253906 -17.761719 C 25.035156 -14.933594 23.667969 -12.25 22.203125 -9.761719 C 20.691406 -7.222656 19.082031 -5.125 17.375 -3.515625 C 15.664062 -1.902344 13.761719 -1.074219 11.761719 -1.074219 C 9.710938 -1.074219 8.246094 -1.757812 7.417969 -3.171875 C 6.589844 -4.539062 6.148438 -6.34375 6.148438 -8.589844 C 6.148438 -10.832031 6.441406 -13.324219 6.980469 -16.054688 C 7.515625 -18.738281 8.199219 -21.472656 9.027344 -24.207031 C 9.859375 -26.9375 10.640625 -29.476562 11.371094 -31.820312 C 11.613281 -32.550781 11.808594 -33.28125 12.054688 -33.917969 C 12.101562 -34.0625 12.152344 -34.308594 12.25 -34.550781 C 12.542969 -35.480469 12.933594 -36.746094 13.46875 -38.457031 C 14.007812 -40.164062 14.492188 -41.921875 14.980469 -43.726562 C 15.421875 -45.53125 15.761719 -47.042969 15.957031 -48.363281 C 16.105469 -49.632812 15.957031 -50.265625 15.519531 -50.265625 C 13.910156 -50.265625 11.664062 -48.167969 8.734375 -43.96875 C 5.757812 -39.773438 3.5625 -34.746094 2.097656 -28.9375 C 1.953125 -28.5 1.707031 -28.207031 1.367188 -28.0625 C 1.023438 -27.914062 0.683594 -27.867188 0.4375 -28.011719 C 0.144531 -28.160156 0.046875 -28.402344 0.0976562 -28.839844 C 1.023438 -32.746094 2.390625 -36.453125 4.246094 -40.015625 C 6.050781 -43.578125 8.050781 -46.507812 10.25 -48.800781 C 12.394531 -51.09375 14.347656 -52.21875 16.054688 -52.21875 C 17.03125 -52.21875 17.617188 -51.730469 17.859375 -50.753906 C 18.054688 -49.726562 18.007812 -48.460938 17.761719 -46.898438 C 17.472656 -45.289062 17.03125 -43.578125 16.496094 -41.726562 C 15.957031 -39.871094 15.371094 -38.066406 14.785156 -36.308594 C 14.492188 -35.429688 14.25 -34.601562 14.007812 -33.820312 C 13.859375 -33.429688 13.714844 -33.039062 13.566406 -32.597656 C 12.835938 -30.207031 12.054688 -27.71875 11.273438 -25.035156 C 10.445312 -22.351562 9.761719 -19.765625 9.222656 -17.179688 C 8.636719 -14.589844 8.296875 -12.199219 8.199219 -10.101562 C 8.101562 -8.003906 8.34375 -6.296875 8.980469 -5.027344 C 9.566406 -3.707031 10.6875 -3.074219 12.296875 -3.074219 C 13.859375 -3.074219 15.371094 -3.902344 16.886719 -5.515625 C 18.398438 -7.125 19.8125 -9.125 21.132812 -11.566406 C 22.449219 -13.957031 23.667969 -16.496094 24.792969 -19.082031 C 25.863281 -21.667969 26.792969 -23.960938 27.621094 -26.011719 C 28.742188 -28.890625 29.574219 -30.890625 30.160156 -32.011719 C 30.695312 -33.136719 31.378906 -33.671875 32.109375 -33.671875 C 32.84375 -33.671875 33.183594 -33.183594 33.136719 -32.160156 C 33.085938 -31.136719 32.746094 -29.183594 32.207031 -26.351562 C 31.917969 -24.695312 31.625 -22.839844 31.28125 -20.839844 C 30.941406 -18.789062 30.648438 -16.738281 30.5 -14.640625 C 30.304688 -12.542969 30.304688 -10.640625 30.453125 -8.929688 C 30.597656 -7.171875 30.941406 -5.757812 31.574219 -4.683594 C 32.207031 -3.609375 33.136719 -3.074219 34.40625 -3.074219 C 37.625 -3.074219 40.796875 -5.320312 43.871094 -9.859375 C 46.75 -14.152344 49.046875 -19.617188 50.851562 -26.253906 C 51.828125 -29.816406 52.511719 -33.378906 52.949219 -36.894531 C 53.339844 -40.359375 53.4375 -43.578125 53.195312 -46.457031 C 52.949219 -49.339844 52.414062 -51.632812 51.484375 -53.386719 C 50.558594 -55.144531 49.289062 -56.023438 47.582031 -56.023438 C 47.140625 -56.023438 46.898438 -56.171875 46.847656 -56.511719 C 46.800781 -56.851562 46.898438 -57.144531 47.140625 -57.488281 C 47.386719 -57.828125 47.679688 -57.976562 48.117188 -57.976562 C 50.214844 -57.976562 51.828125 -57.046875 52.949219 -55.242188 C 54.070312 -53.386719 54.804688 -50.949219 55.144531 -47.921875 C 55.488281 -44.847656 55.4375 -41.480469 55.046875 -37.722656 C 54.609375 -33.964844 53.875 -30.160156 52.851562 -26.253906 C 52.023438 -23.179688 50.996094 -20.15625 49.777344 -17.179688 C 48.558594 -14.199219 47.140625 -11.515625 45.53125 -9.125 C 43.921875 -6.6875 42.117188 -4.734375 40.210938 -3.269531 C 38.261719 -1.804688 36.160156 -1.074219 33.867188 -1.074219 Z M 33.867188 -1.074219 "/></g></g></g></g><g fill="#ffffff" fill-opacity="1"><g transform="translate(183.736157, 58.712747)"><g><path d="M 16.007812 -24.449219 C 14.6875 -23.71875 13.371094 -23.179688 12.003906 -22.9375 C 10.589844 -22.644531 9.566406 -22.546875 8.882812 -22.691406 C 8.492188 -22.789062 8.199219 -22.984375 8.050781 -23.328125 C 7.90625 -23.667969 7.757812 -24.011719 7.660156 -24.402344 C 7.5625 -24.9375 7.417969 -25.375 7.171875 -25.765625 C 6.929688 -26.15625 6.441406 -26.351562 5.710938 -26.351562 C 4.832031 -26.351562 4.050781 -26.011719 3.417969 -25.328125 C 2.78125 -24.597656 2.195312 -23.765625 1.707031 -22.839844 C 1.855469 -23.472656 2.050781 -24.15625 2.292969 -24.984375 C 2.34375 -25.425781 2.246094 -25.71875 2 -25.863281 C 1.707031 -26.011719 1.414062 -26.011719 1.074219 -25.863281 C 0.730469 -25.71875 0.4375 -25.425781 0.292969 -24.984375 C -0.4375 -22.398438 -0.828125 -20.496094 -0.878906 -19.375 C -0.976562 -18.203125 -0.632812 -17.617188 0.195312 -17.617188 C 0.730469 -17.617188 1.21875 -17.859375 1.5625 -18.398438 C 1.902344 -18.886719 2.246094 -19.570312 2.585938 -20.449219 C 2.78125 -20.886719 3.027344 -21.375 3.367188 -22.007812 C 3.660156 -22.59375 3.953125 -23.132812 4.292969 -23.667969 C 4.636719 -24.15625 4.929688 -24.402344 5.171875 -24.402344 C 5.320312 -24.402344 5.417969 -24.304688 5.464844 -24.15625 C 5.515625 -24.011719 5.613281 -23.765625 5.660156 -23.523438 C 5.808594 -22.984375 6.003906 -22.449219 6.34375 -21.910156 C 6.636719 -21.375 7.171875 -20.984375 7.953125 -20.789062 C 8.882812 -20.59375 10.199219 -20.691406 11.90625 -21.035156 C 13.566406 -21.375 15.175781 -21.960938 16.738281 -22.839844 C 17.179688 -23.082031 17.375 -23.425781 17.421875 -23.765625 C 17.421875 -24.109375 17.277344 -24.351562 17.03125 -24.546875 C 16.789062 -24.695312 16.445312 -24.695312 16.007812 -24.449219 Z M 16.007812 -24.449219 "/></g></g></g><g fill="#ffffff" fill-opacity="1"><g transform="translate(199.395472, 58.712747)"><g><path d="M 1.953125 -27.328125 L 1.855469 -27.328125 C 1.609375 -27.378906 1.414062 -27.476562 1.316406 -27.71875 C 1.171875 -27.914062 1.171875 -28.160156 1.269531 -28.402344 C 1.316406 -28.597656 1.367188 -28.792969 1.414062 -28.9375 L 1.464844 -28.9375 C 1.5625 -29.328125 1.707031 -29.769531 1.953125 -30.207031 C 2.097656 -30.453125 2.292969 -30.695312 2.539062 -30.84375 C 2.78125 -30.988281 3.027344 -31.039062 3.269531 -30.988281 C 3.515625 -30.941406 3.707031 -30.792969 3.804688 -30.597656 C 3.902344 -30.355469 3.902344 -30.109375 3.757812 -29.867188 L 3.367188 -28.792969 L 3.171875 -28.207031 C 3.074219 -27.964844 2.929688 -27.71875 2.683594 -27.574219 C 2.441406 -27.425781 2.195312 -27.328125 1.953125 -27.328125 Z M 11.515625 -24.109375 C 8.148438 -21.035156 5.417969 -19.570312 3.367188 -19.765625 C 2.34375 -19.910156 1.757812 -20.398438 1.660156 -21.324219 C 1.5625 -22.253906 1.707031 -23.375 2.148438 -24.742188 C 2.246094 -25.277344 2.148438 -25.621094 1.902344 -25.765625 C 1.660156 -25.914062 1.316406 -25.914062 0.976562 -25.765625 C 0.585938 -25.621094 0.292969 -25.277344 0.144531 -24.742188 C -0.242188 -23.425781 -0.4375 -22.203125 -0.4375 -21.179688 C -0.4375 -20.15625 -0.144531 -19.324219 0.390625 -18.691406 C 0.925781 -18.054688 1.902344 -17.761719 3.269531 -17.761719 C 5.855469 -17.761719 9.027344 -19.472656 12.6875 -22.839844 C 13.03125 -23.179688 13.175781 -23.523438 13.128906 -23.863281 C 13.078125 -24.15625 12.882812 -24.351562 12.589844 -24.449219 C 12.25 -24.546875 11.90625 -24.449219 11.515625 -24.109375 Z M 11.515625 -24.109375 "/></g></g></g><g fill="#ffffff" fill-opacity="1"><g transform="translate(210.711801, 58.712747)"><g><path d="M 34.648438 -42.066406 L 6.980469 -42.066406 C 7.808594 -45.238281 8.734375 -48.65625 9.710938 -52.363281 C 9.808594 -52.804688 9.710938 -53.097656 9.46875 -53.242188 C 9.175781 -53.386719 8.832031 -53.386719 8.492188 -53.242188 C 8.148438 -53.097656 7.90625 -52.804688 7.757812 -52.363281 C 6.734375 -48.65625 5.808594 -45.238281 4.976562 -42.066406 L -8.050781 -42.066406 C -8.492188 -42.066406 -8.785156 -41.921875 -8.980469 -41.578125 C -9.222656 -41.238281 -9.320312 -40.945312 -9.273438 -40.601562 C -9.222656 -40.261719 -9.027344 -40.113281 -8.6875 -40.113281 L 4.441406 -40.113281 C 3.515625 -36.550781 2.636719 -33.332031 1.855469 -30.453125 C -1.316406 -19.03125 -3.171875 -11.859375 -3.707031 -8.980469 C -3.953125 -7.660156 -4 -6.589844 -3.855469 -5.757812 C -3.707031 -4.878906 -3.074219 -4.441406 -1.953125 -4.441406 C -1.511719 -4.441406 -1.171875 -4.585938 -0.925781 -4.929688 C -0.683594 -5.269531 -0.632812 -5.613281 -0.683594 -5.953125 C -0.730469 -6.296875 -0.976562 -6.441406 -1.414062 -6.441406 C -1.5625 -6.441406 -1.707031 -6.492188 -1.804688 -6.636719 C -1.902344 -6.785156 -1.953125 -7.027344 -1.953125 -7.417969 C -1.953125 -7.808594 -1.855469 -8.394531 -1.707031 -9.175781 C -1.023438 -12.347656 0.828125 -19.472656 3.804688 -30.453125 L 6.441406 -40.113281 L 34.160156 -40.113281 C 34.601562 -40.113281 34.941406 -40.261719 35.1875 -40.601562 C 35.429688 -40.945312 35.480469 -41.238281 35.429688 -41.578125 C 35.382812 -41.921875 35.089844 -42.066406 34.648438 -42.066406 Z M 34.648438 -42.066406 "/></g></g></g><g fill="#ffffff" fill-opacity="1"><g transform="translate(217.343559, 58.712747)"><g><path d="M 4.539062 -24.011719 C 4.097656 -23.765625 3.367188 -23.621094 2.34375 -23.570312 C 3.074219 -24.011719 3.804688 -24.15625 4.539062 -24.011719 Z M 14.347656 -24.253906 C 9.90625 -20.984375 6.101562 -19.472656 2.929688 -19.714844 C 2.195312 -19.765625 1.707031 -19.910156 1.367188 -20.15625 C 1.023438 -20.398438 0.828125 -20.644531 0.78125 -20.9375 C 0.683594 -21.179688 0.683594 -21.472656 0.730469 -21.714844 C 2.636719 -21.472656 4.148438 -21.714844 5.320312 -22.398438 C 6.441406 -23.082031 6.929688 -23.863281 6.785156 -24.792969 C 6.539062 -25.621094 5.855469 -26.058594 4.734375 -26.058594 C 3.609375 -26.011719 2.441406 -25.667969 1.269531 -24.9375 C 0.046875 -24.207031 -0.730469 -23.132812 -1.171875 -21.8125 C -1.511719 -20.59375 -1.414062 -19.617188 -0.78125 -18.886719 C -0.144531 -18.152344 1.023438 -17.761719 2.734375 -17.761719 C 6.589844 -17.761719 10.734375 -19.421875 15.226562 -22.789062 C 15.617188 -23.082031 15.8125 -23.425781 15.8125 -23.765625 C 15.761719 -24.109375 15.617188 -24.351562 15.371094 -24.5 C 15.078125 -24.644531 14.738281 -24.546875 14.347656 -24.253906 Z M 14.347656 -24.253906 "/></g></g></g><g fill="#ffffff" fill-opacity="1"><g transform="translate(231.441351, 58.712747)"><g><path d="M 4.292969 -14.054688 C 2.734375 -12.6875 1.414062 -11.90625 0.339844 -11.710938 C -0.730469 -11.515625 -1.269531 -11.613281 -1.316406 -12.054688 C -1.269531 -12.542969 -0.925781 -13.078125 -0.292969 -13.664062 C 0.339844 -14.25 1.023438 -14.835938 1.804688 -15.371094 C 2.539062 -15.910156 3.171875 -16.347656 3.707031 -16.640625 C 4 -16.300781 4.246094 -15.859375 4.488281 -15.371094 C 4.734375 -14.882812 4.636719 -14.445312 4.292969 -14.054688 Z M 17.472656 -24.695312 C 12.640625 -23.035156 8.34375 -21.179688 4.539062 -19.082031 C 4.195312 -19.421875 3.902344 -19.765625 3.5625 -20.105469 C 2.929688 -20.691406 2.488281 -21.230469 2.148438 -21.667969 C 1.804688 -22.203125 1.660156 -22.691406 1.757812 -23.082031 C 1.855469 -23.472656 2.050781 -23.816406 2.292969 -24.058594 C 2.832031 -24.644531 3.5625 -25.132812 4.488281 -25.523438 C 5.367188 -25.914062 6.148438 -26.109375 6.832031 -26.109375 C 7.464844 -26.109375 7.757812 -25.816406 7.660156 -25.230469 C 7.5625 -24.792969 7.660156 -24.546875 7.953125 -24.402344 C 8.199219 -24.253906 8.539062 -24.253906 8.882812 -24.402344 C 9.222656 -24.546875 9.46875 -24.792969 9.613281 -25.230469 C 9.957031 -26.644531 9.566406 -27.523438 8.539062 -27.867188 C 7.515625 -28.207031 6.246094 -28.109375 4.734375 -27.574219 C 3.222656 -27.035156 1.902344 -26.207031 0.828125 -25.035156 C -0.488281 -23.425781 -0.683594 -21.8125 0.339844 -20.300781 C 0.78125 -19.765625 1.269531 -19.179688 1.902344 -18.542969 C 2.148438 -18.347656 2.34375 -18.152344 2.539062 -17.957031 C 1.269531 -17.226562 0 -16.300781 -1.21875 -15.175781 C -2.488281 -14.054688 -3.222656 -12.882812 -3.367188 -11.664062 C -3.367188 -10.25 -2.488281 -9.613281 -0.683594 -9.664062 C 1.074219 -9.710938 3.125 -10.734375 5.464844 -12.785156 C 6.296875 -13.617188 6.6875 -14.445312 6.636719 -15.324219 C 6.589844 -16.152344 6.246094 -16.984375 5.710938 -17.714844 C 9.273438 -19.617188 13.273438 -21.324219 17.617188 -22.839844 C 18.054688 -22.984375 18.347656 -23.277344 18.496094 -23.621094 C 18.59375 -23.960938 18.542969 -24.304688 18.398438 -24.546875 C 18.203125 -24.792969 17.910156 -24.839844 17.472656 -24.695312 Z M 17.472656 -24.695312 "/></g></g></g><g clip-path="url(#72af30e549)"><g fill="#ffffff" fill-opacity="1"><g transform="translate(248.320606, 58.712747)"><g><path d="M 39.089844 -24.5 C 38.796875 -24.449219 38.554688 -24.253906 38.359375 -23.914062 C 35.382812 -18.398438 31.28125 -13.421875 26.15625 -8.929688 C 23.375 -6.636719 20.546875 -5.027344 17.667969 -4.097656 C 14.785156 -3.125 12.152344 -2.929688 9.761719 -3.515625 C 7.367188 -4.050781 5.5625 -5.5625 4.34375 -7.953125 C 2.832031 -11.320312 2.488281 -15.566406 3.269531 -20.59375 C 4.050781 -25.621094 5.660156 -30.695312 8.050781 -35.820312 C 10.445312 -40.945312 13.273438 -45.289062 16.59375 -48.851562 C 19.03125 -51.386719 21.617188 -53.289062 24.402344 -54.511719 C 27.132812 -55.730469 29.425781 -55.878906 31.28125 -55 C 33.136719 -54.070312 33.917969 -51.730469 33.625 -47.921875 C 33.183594 -44.261719 31.867188 -40.503906 29.621094 -36.550781 C 27.914062 -33.917969 26.351562 -32.160156 24.984375 -31.234375 C 23.570312 -30.304688 22.789062 -29.964844 22.546875 -30.160156 C 22.496094 -30.257812 22.496094 -30.402344 22.644531 -30.597656 C 22.742188 -30.746094 22.886719 -30.941406 23.132812 -31.183594 C 23.328125 -31.429688 23.523438 -31.574219 23.71875 -31.722656 C 24.15625 -32.0625 24.402344 -32.402344 24.449219 -32.746094 C 24.5 -33.085938 24.351562 -33.332031 24.109375 -33.476562 C 23.816406 -33.625 23.472656 -33.625 23.082031 -33.378906 C 22.105469 -32.792969 21.375 -32.011719 20.839844 -30.988281 C 20.300781 -29.867188 20.351562 -29.035156 20.886719 -28.5 C 21.863281 -27.769531 23.425781 -28.109375 25.523438 -29.523438 C 27.621094 -30.941406 29.621094 -33.183594 31.476562 -36.160156 C 33.867188 -40.40625 35.332031 -44.410156 35.769531 -48.265625 C 36.0625 -52.558594 35.136719 -55.339844 32.988281 -56.609375 C 30.84375 -57.878906 28.109375 -57.878906 24.839844 -56.660156 C 21.519531 -55.4375 18.300781 -53.195312 15.226562 -50.019531 C 11.664062 -46.164062 8.636719 -41.578125 6.148438 -36.210938 C 3.660156 -30.792969 2 -25.472656 1.21875 -20.15625 C 0.390625 -14.835938 0.828125 -10.394531 2.441406 -6.785156 C 3.804688 -4.050781 5.855469 -2.34375 8.539062 -1.609375 C 11.222656 -0.878906 14.199219 -1.074219 17.472656 -2.148438 C 20.742188 -3.171875 23.960938 -5.027344 27.132812 -7.660156 C 32.402344 -12.25 36.648438 -17.519531 39.820312 -23.472656 C 39.96875 -23.765625 39.96875 -24.011719 39.820312 -24.253906 C 39.625 -24.449219 39.382812 -24.546875 39.089844 -24.5 Z M 39.089844 -24.5 "/></g></g></g></g><g fill="#ffffff" fill-opacity="1"><g transform="translate(286.231628, 58.712747)"><g><path d="M 5.464844 -22.15625 C 4.976562 -22.351562 4.683594 -22.59375 4.539062 -22.9375 C 4.390625 -23.277344 4.34375 -23.570312 4.488281 -23.863281 C 4.636719 -24.207031 4.832031 -24.402344 5.074219 -24.402344 C 5.320312 -24.402344 5.464844 -24.207031 5.613281 -23.863281 C 5.710938 -23.472656 5.660156 -22.886719 5.464844 -22.15625 Z M 15.175781 -24.207031 C 12.640625 -22.449219 10.003906 -21.667969 7.320312 -21.8125 C 7.855469 -23.621094 7.855469 -24.839844 7.222656 -25.570312 C 6.589844 -26.304688 5.757812 -26.5 4.78125 -26.253906 C 3.804688 -26.011719 3.074219 -25.277344 2.585938 -24.058594 C 2.292969 -23.328125 2.292969 -22.59375 2.539062 -21.910156 C 2.78125 -21.179688 3.417969 -20.644531 4.390625 -20.300781 C 3.953125 -19.863281 3.417969 -19.617188 2.832031 -19.617188 C 1.902344 -19.617188 1.464844 -20.058594 1.414062 -20.886719 C 1.367188 -21.714844 1.5625 -22.644531 2 -23.570312 C 2.148438 -24.011719 2.148438 -24.351562 1.902344 -24.546875 C 1.660156 -24.742188 1.367188 -24.792969 1.023438 -24.742188 C 0.683594 -24.644531 0.390625 -24.402344 0.144531 -23.960938 C -0.683594 -21.960938 -0.878906 -20.398438 -0.339844 -19.277344 C 0.195312 -18.152344 1.074219 -17.617188 2.292969 -17.617188 C 3.757812 -17.617188 5.125 -18.398438 6.34375 -19.910156 C 7.808594 -19.765625 9.417969 -19.910156 11.222656 -20.351562 C 12.980469 -20.789062 14.640625 -21.617188 16.203125 -22.789062 C 16.542969 -23.132812 16.738281 -23.425781 16.691406 -23.765625 C 16.640625 -24.109375 16.496094 -24.304688 16.203125 -24.449219 C 15.910156 -24.597656 15.566406 -24.5 15.175781 -24.207031 Z M 15.175781 -24.207031 "/></g></g></g><g fill="#ffffff" fill-opacity="1"><g transform="translate(301.207777, 58.712747)"><g><path d="M 19.570312 -24.402344 C 17.957031 -22.886719 16.542969 -21.765625 15.273438 -20.9375 C 14.007812 -20.105469 12.785156 -19.714844 11.613281 -19.714844 C 10.296875 -19.714844 9.664062 -20.546875 9.664062 -22.203125 C 9.613281 -23.816406 9.957031 -25.960938 10.6875 -28.597656 C 11.371094 -31.234375 12.199219 -34.113281 13.175781 -37.234375 C 14.105469 -40.113281 14.933594 -42.945312 15.714844 -45.777344 C 15.859375 -46.3125 15.761719 -46.703125 15.519531 -46.898438 C 15.273438 -47.09375 14.933594 -47.09375 14.589844 -46.898438 C 14.199219 -46.703125 13.910156 -46.3125 13.761719 -45.777344 C 13.421875 -44.652344 12.835938 -42.699219 11.90625 -39.96875 C 10.980469 -37.1875 9.859375 -34.257812 8.636719 -31.183594 C 7.417969 -28.0625 6.148438 -25.375 4.832031 -23.132812 C 3.515625 -20.839844 2.390625 -19.714844 1.414062 -19.714844 C 1.21875 -19.714844 1.121094 -19.8125 1.074219 -20.058594 C 1.023438 -20.300781 0.976562 -20.496094 0.976562 -20.742188 C 1.023438 -21.035156 1.074219 -21.421875 1.21875 -21.863281 C 1.367188 -22.300781 1.511719 -22.742188 1.707031 -23.179688 C 1.855469 -23.570312 2.050781 -23.863281 2.292969 -24.011719 C 2.488281 -24.15625 2.683594 -24.109375 2.832031 -23.863281 C 3.074219 -23.523438 3.367188 -23.425781 3.707031 -23.523438 C 4.050781 -23.621094 4.34375 -23.816406 4.585938 -24.15625 C 4.832031 -24.449219 4.832031 -24.792969 4.683594 -25.132812 C 4.050781 -26.109375 3.320312 -26.449219 2.441406 -26.15625 C 1.511719 -25.863281 0.730469 -25.179688 0.046875 -24.058594 C -0.632812 -22.9375 -1.023438 -21.617188 -1.074219 -20.203125 C -1.023438 -18.59375 -0.390625 -17.761719 0.878906 -17.761719 C 2.097656 -17.761719 3.269531 -18.445312 4.488281 -19.8125 C 5.660156 -21.179688 6.785156 -22.9375 7.90625 -25.132812 C 7.660156 -23.914062 7.5625 -22.742188 7.613281 -21.617188 C 7.660156 -20.496094 7.90625 -19.570312 8.441406 -18.835938 C 8.980469 -18.105469 9.859375 -17.761719 11.078125 -17.761719 C 12.835938 -17.761719 14.542969 -18.300781 16.152344 -19.421875 C 17.761719 -20.496094 19.324219 -21.714844 20.789062 -23.132812 C 21.132812 -23.472656 21.230469 -23.816406 21.179688 -24.15625 C 21.132812 -24.449219 20.9375 -24.644531 20.59375 -24.742188 C 20.253906 -24.839844 19.910156 -24.742188 19.570312 -24.402344 Z M 19.570312 -24.402344 "/></g></g></g><g fill="#ffffff" fill-opacity="1"><g transform="translate(320.624508, 58.712747)"><g><path d="M 4.539062 -24.011719 C 4.097656 -23.765625 3.367188 -23.621094 2.34375 -23.570312 C 3.074219 -24.011719 3.804688 -24.15625 4.539062 -24.011719 Z M 14.347656 -24.253906 C 9.90625 -20.984375 6.101562 -19.472656 2.929688 -19.714844 C 2.195312 -19.765625 1.707031 -19.910156 1.367188 -20.15625 C 1.023438 -20.398438 0.828125 -20.644531 0.78125 -20.9375 C 0.683594 -21.179688 0.683594 -21.472656 0.730469 -21.714844 C 2.636719 -21.472656 4.148438 -21.714844 5.320312 -22.398438 C 6.441406 -23.082031 6.929688 -23.863281 6.785156 -24.792969 C 6.539062 -25.621094 5.855469 -26.058594 4.734375 -26.058594 C 3.609375 -26.011719 2.441406 -25.667969 1.269531 -24.9375 C 0.046875 -24.207031 -0.730469 -23.132812 -1.171875 -21.8125 C -1.511719 -20.59375 -1.414062 -19.617188 -0.78125 -18.886719 C -0.144531 -18.152344 1.023438 -17.761719 2.734375 -17.761719 C 6.589844 -17.761719 10.734375 -19.421875 15.226562 -22.789062 C 15.617188 -23.082031 15.8125 -23.425781 15.8125 -23.765625 C 15.761719 -24.109375 15.617188 -24.351562 15.371094 -24.5 C 15.078125 -24.644531 14.738281 -24.546875 14.347656 -24.253906 Z M 14.347656 -24.253906 "/></g></g></g></svg>